HIERARCHY
ROOT Hips
{
 OFFSET 0.000000 0.000000 0.000000
 CHANNELS 6 Xposition Yposition Zposition Yrotation Xrotation Zrotation
 JOINT Chest
 {
  OFFSET 0.000000 9.585900 0.002600
  CHANNELS 3 Yrotation Xrotation Zrotation
  JOINT Chest2
  {
   OFFSET 0.000000 9.601200 -0.005300
   CHANNELS 3 Yrotation Xrotation Zrotation
   JOINT Chest3
   {
    OFFSET 0.000000 9.561800 0.000000
    CHANNELS 3 Yrotation Xrotation Zrotation
    JOINT Chest4
    {
     OFFSET 0.000000 9.552100 0.000000
     CHANNELS 3 Yrotation Xrotation Zrotation
     JOINT Neck
     {
      OFFSET 0.000000 14.453000 0.000000
      CHANNELS 3 Yrotation Xrotation Zrotation
      JOINT Head
      {
       OFFSET 0.000000 8.936500 -0.011300
       CHANNELS 3 Yrotation Xrotation Zrotation
       End Site
       {
        OFFSET 0.000000 17.073600 -0.006000
       }
      }
     }
     JOINT RightCollar
     {
      OFFSET -2.921100 9.558500 0.000000
      CHANNELS 3 Yrotation Xrotation Zrotation
      JOINT RightShoulder
      {
       OFFSET -13.519700 0.000000 0.000000
       CHANNELS 3 Yrotation Xrotation Zrotation
       JOINT RightElbow
       {
        OFFSET 0.000000 -29.696600 0.000000
        CHANNELS 3 Yrotation Xrotation Zrotation
        JOINT RightWrist
        {
         OFFSET 0.000000 -24.004700 0.000000
         CHANNELS 3 Yrotation Xrotation Zrotation
         End Site
         {
          OFFSET 0.000000 -17.728500 0.000000
         }
        }
       }
      }
     }
     JOINT LeftCollar
     {
      OFFSET 2.921100 9.558500 0.000000
      CHANNELS 3 Yrotation Xrotation Zrotation
      JOINT LeftShoulder
      {
       OFFSET 13.519700 0.000000 0.000000
       CHANNELS 3 Yrotation Xrotation Zrotation
       JOINT LeftElbow
       {
        OFFSET 0.000000 -29.696600 0.000000
        CHANNELS 3 Yrotation Xrotation Zrotation
        JOINT LeftWrist
        {
         OFFSET 0.000000 -24.004700 0.000000
         CHANNELS 3 Yrotation Xrotation Zrotation
         End Site
         {
          OFFSET 0.000000 -17.728500 0.000000
         }
        }
       }
      }
     }
    }
   }
  }
 }
 JOINT RightHip
 {
  OFFSET -7.771700 -0.012900 -0.001300
  CHANNELS 3 Yrotation Xrotation Zrotation
  JOINT RightKnee
  {
   OFFSET 0.000000 -40.869800 0.001200
   CHANNELS 3 Yrotation Xrotation Zrotation
   JOINT RightAnkle
   {
    OFFSET 0.000000 -39.717900 0.002100
    CHANNELS 3 Yrotation Xrotation Zrotation
    JOINT RightToe
    {
     OFFSET 0.000000 -4.965400 11.033500
     CHANNELS 3 Yrotation Xrotation Zrotation
     End Site
     {
      OFFSET 0.000000 -1.423100 5.872300
     }
    }
   }
  }
 }
 JOINT LeftHip
 {
  OFFSET 7.771700 -0.012900 -0.001300
  CHANNELS 3 Yrotation Xrotation Zrotation
  JOINT LeftKnee
  {
   OFFSET 0.000000 -40.869800 0.001200
   CHANNELS 3 Yrotation Xrotation Zrotation
   JOINT LeftAnkle
   {
    OFFSET 0.000000 -39.717900 0.002100
    CHANNELS 3 Yrotation Xrotation Zrotation
    JOINT LeftToe
    {
     OFFSET 0.000000 -4.965400 11.033500
     CHANNELS 3 Yrotation Xrotation Zrotation
     End Site
     {
      OFFSET 0.000000 -1.423100 5.872300
     }
    }
   }
  }
 }
}
MOTION
Frames: 12
Frame Time: 0.008333
-24.580599 50.642162 7.758275 163.094742 -7.890417 -0.544524 3.639807 6.960998 0.732252 0.155253 0.323283 -0.009515 0.239813 0.567244 0.002157 3.200839 6.601130 -0.039165 1.984531 17.076637 -0.791705 4.007111 -4.139716 -2.265716 2.905413 5.278200 -0.227795 -10.476059 -14.930872 -10.528875 -120.312977 -75.018643 146.673314 -1.471249 2.205530 -31.432703 -5.350483 2.229502 0.416906 22.405412 -7.251235 4.887319 102.808572 -71.063252 -132.830684 2.958389 4.149855 15.421163 -5.922681 -72.718509 2.174673 -119.354842 84.180536 -117.320685 -3.029160 -13.641167 -1.140415 -0.197858 0.716916 -0.095904 -13.626265 -75.732636 30.178110 108.805873 78.724048 104.792170 -15.539922 -21.024914 -0.110356 -0.378594 -0.996696 -0.168827
-24.579113 50.641559 7.754162 163.088550 -7.908518 -0.553621 3.669189 6.971514 0.733391 0.146917 0.327731 -0.004798 0.284201 0.564904 -0.022086 3.194725 6.610194 -0.027486 1.964374 17.030683 -0.803086 3.961710 -4.241803 -2.265637 2.852100 5.226703 -0.201902 -10.557772 -14.962733 -10.466446 -120.335653 -75.009158 146.724694 -1.470651 2.165193 -31.444341 -5.400991 2.216187 0.440855 22.381384 -7.301264 4.825672 102.802601 -71.071544 -132.797123 2.977117 4.123316 15.471033 -5.956370 -72.694660 2.215301 -119.344335 84.181289 -117.311558 -3.028211 -13.650350 -1.142486 -0.197389 0.723042 -0.095113 -13.654447 -75.716389 30.208729 108.892473 78.727108 104.879659 -15.513043 -21.039389 -0.101898 -0.391082 -0.996438 -0.182039
-24.577914 50.640504 7.752477 163.089925 -7.918183 -0.563822 3.682680 6.974295 0.738938 0.144331 0.331699 -0.004632 0.292832 0.559822 -0.024488 3.197714 6.618896 -0.026729 1.968502 16.932143 -0.854369 3.909165 -4.296136 -2.236065 2.828016 5.192554 -0.192198 -10.616052 -14.986053 -10.411575 -120.384354 -74.994841 146.773704 -1.471295 2.120007 -31.457598 -5.429172 2.188741 0.443874 22.378379 -7.294015 4.826955 102.857632 -71.023500 -132.833664 2.999803 4.094205 15.499134 -5.990435 -72.681707 2.248753 -119.351456 84.181892 -117.316597 -3.023565 -13.655127 -1.145189 -0.200290 0.725139 -0.095826 -13.783624 -75.697552 30.323416 108.968302 78.722906 104.932230 -15.464550 -21.047766 -0.100437 -0.409086 -1.005776 -0.192830
-24.577515 50.639334 7.750427 163.100426 -7.936046 -0.567206 3.686998 6.976753 0.737136 0.148097 0.338636 -0.005478 0.291797 0.555484 -0.024651 3.199946 6.631745 -0.024566 1.955253 16.873441 -0.874591 3.874358 -4.395383 -2.248753 2.810007 5.181135 -0.184310 -10.657505 -15.012700 -10.366178 -120.437517 -74.975761 146.807831 -1.466750 2.129202 -31.435421 -5.449500 2.160607 0.445497 22.341443 -7.318965 4.778933 102.869297 -70.981126 -132.810925 2.956945 4.150717 15.523657 -6.003963 -72.661890 2.249779 -119.424805 84.186443 -117.382909 -3.031329 -13.667397 -1.154653 -0.194854 0.730207 -0.092176 -13.829659 -75.675992 30.353681 108.997291 78.722796 104.950777 -15.454386 -21.051121 -0.104371 -0.393165 -1.024101 -0.184600
-24.577104 50.638348 7.746226 163.114020 -7.975120 -0.564484 3.693574 6.991634 0.727506 0.139610 0.347504 -0.000475 0.300528 0.553175 -0.029806 3.204561 6.642130 -0.025819 1.939846 16.815057 -0.891781 3.835718 -4.496375 -2.258169 2.790513 5.147618 -0.168129 -10.671448 -14.985525 -10.357728 -120.467745 -74.961447 146.821184 -1.487674 2.027058 -31.504951 -5.469340 2.147518 0.456661 22.273080 -7.375234 4.690396 102.803154 -71.023215 -132.690351 2.934233 4.168956 15.547740 -5.969751 -72.619187 2.197111 -119.556805 84.198786 -117.499347 -3.046924 -13.685173 -1.167100 -0.187403 0.739007 -0.085306 -13.815507 -75.636345 30.323124 109.017553 78.725258 104.967120 -15.468840 -21.047752 -0.107202 -0.379718 -1.033103 -0.177780
-24.577111 50.636541 7.747215 163.127652 -7.993150 -0.565866 3.701593 6.983133 0.719867 0.138299 0.356197 0.000047 0.292106 0.560555 -0.025158 3.228868 6.643710 -0.040441 1.918269 16.750170 -0.902178 3.791501 -4.594829 -2.263109 2.763334 5.116217 -0.143236 -10.722257 -15.022065 -10.256093 -120.420789 -75.050602 146.800559 -1.508948 1.944012 -31.580359 -5.496450 2.136071 0.477804 22.213802 -7.404588 4.641828 102.748459 -71.042647 -132.596438 3.016987 4.075315 15.537727 -5.969244 -72.601044 2.180906 -119.622247 84.205093 -117.556089 -3.052902 -13.691234 -1.168700 -0.184135 0.742636 -0.088630 -13.819171 -75.618667 30.312017 108.990782 78.729547 104.944563 -15.497554 -21.041215 -0.111702 -0.358596 -1.036889 -0.169597
-24.577332 50.634494 7.748954 163.134552 -8.016586 -0.564552 3.717244 6.973093 0.710053 0.162351 0.328672 -0.012216 0.257974 0.608779 -0.006714 3.300144 6.599894 -0.083421 1.857627 16.765967 -0.857028 3.746160 -4.726536 -2.286139 2.698765 5.133003 -0.084605 -10.737963 -15.035708 -10.181294 -120.445107 -75.102911 146.772976 -1.520255 1.915094 -31.601718 -5.572175 2.185807 0.529942 22.165294 -7.428121 4.606584 102.702496 -71.048801 -132.521180 3.094314 4.020079 15.493782 -5.947002 -72.580170 2.146446 -119.684514 84.210671 -117.609827 -3.039421 -13.691387 -1.167512 -0.197186 0.742557 -0.097215 -13.808044 -75.596296 30.291521 108.968359 78.731617 104.920733 -15.510102 -21.031874 -0.113016 -0.419430 -1.043853 -0.175574
-24.578442 50.632228 7.750851 163.152175 -8.047370 -0.558957 3.715247 6.975629 0.696965 0.166514 0.317513 -0.015649 0.285307 0.574714 -0.021515 3.289856 6.629593 -0.074593 1.831400 16.702393 -0.872267 3.697184 -4.789163 -2.277556 2.684582 5.120863 -0.063544 -10.730198 -15.018733 -10.127183 -120.439717 -75.149405 146.692647 -1.528904 1.879987 -31.625263 -5.600413 2.218463 0.550645 22.122699 -7.447362 4.577173 102.659292 -71.065820 -132.451448 3.187464 3.973250 15.421935 -5.927658 -72.554398 2.103086 -119.764692 84.213115 -117.686343 -3.026942 -13.688644 -1.165565 -0.206247 0.740227 -0.103232 -13.780640 -75.568642 30.237849 108.928096 78.728912 104.879979 -15.516191 -21.015777 -0.113985 -0.357104 -1.052136 -0.169340
-24.578565 50.629894 7.752479 163.167475 -8.090809 -0.558183 3.715314 6.974583 0.686402 0.167142 0.317365 -0.015924 0.286384 0.574410 -0.021945 3.301329 6.625181 -0.079144 1.803048 16.641941 -0.888689 3.649805 -4.840572 -2.273358 2.666118 5.150688 -0.040711 -10.693434 -15.038923 -10.079369 -120.285271 -75.225118 146.405965 -1.521632 1.809295 -31.603175 -5.619276 2.226220 0.556572 22.085205 -7.442680 4.573518 102.611775 -71.098456 -132.379647 3.322784 3.913691 15.305533 -5.915050 -72.513716 2.074229 -119.819824 84.212953 -117.733603 -3.030491 -13.692793 -1.171807 -0.199615 0.744365 -0.098462 -13.761520 -75.529803 30.192080 108.907483 78.720598 104.859700 -15.511486 -21.000368 -0.114613 -0.392869 -1.059390 -0.176493
-24.578346 50.627690 7.751989 163.188052 -8.155360 -0.557265 3.712089 6.980280 0.672404 0.164271 0.328426 -0.013055 0.279971 0.598883 -0.014796 3.316241 6.598010 -0.090406 1.775105 16.607101 -0.897167 3.602146 -4.905888 -2.280540 2.660415 5.169264 -0.017371 -10.651107 -15.050581 -10.040447 -120.110351 -75.325672 146.136613 -1.531366 1.723945 -31.629495 -5.634518 2.256981 0.565993 22.064100 -7.458385 4.560262 102.530141 -71.114512 -132.299956 3.473816 3.851968 15.164674 -5.901466 -72.451885 2.040486 -119.886972 84.211483 -117.795624 -3.038595 -13.693865 -1.177412 -0.192585 0.741338 -0.094552 -13.732637 -75.474421 30.121702 108.893166 78.701144 104.849245 -15.488755 -20.972221 -0.116458 -0.416914 -1.077693 -0.188587
-24.579487 50.623970 7.760939 163.218199 -8.169872 -0.567740 3.689809 6.969908 0.673356 0.169720 0.303172 -0.019970 0.275415 0.624644 -0.007660 3.319503 6.596552 -0.091540 1.750775 16.551077 -0.918102 3.557584 -4.966597 -2.287106 2.670788 5.160781 -0.003453 -10.603212 -15.065909 -10.006559 -119.815947 -75.444236 145.743939 -1.542694 1.618176 -31.652815 -5.637018 2.261639 0.565601 22.054058 -7.474641 4.552906 102.331318 -71.116196 -132.142687 3.625251 3.762851 15.003288 -5.951480 -72.441229 2.055450 -119.900515 84.213001 -117.804153 -3.020526 -13.685681 -1.182003 -0.205430 0.738214 -0.100335 -13.782521 -75.461052 30.133943 108.761654 78.702635 104.733321 -15.522316 -20.950884 -0.141260 -0.380950 -1.066250 -0.170711
-24.582011 50.620379 7.766999 163.226422 -8.204303 -0.564189 3.688046 6.979262 0.664455 0.172249 0.279162 -0.025450 0.280273 0.623576 -0.009851 3.316372 6.621032 -0.084041 1.723191 16.499841 -0.936496 3.516820 -5.024098 -2.291910 2.706054 5.122686 0.016982 -10.567422 -15.061375 -9.983329 -119.393365 -75.575991 145.218361 -1.561016 1.503280 -31.665956 -5.636473 2.265350 0.564429 22.053222 -7.489671 4.553909 102.127265 -71.116326 -131.989713 3.802747 3.660177 14.801773 -5.940380 -72.411478 2.034405 -119.895181 84.213238 -117.798953 -3.013195 -13.689093 -1.183529 -0.212781 0.747137 -0.101588 -13.750559 -75.430761 30.086795 108.708409 78.699441 104.684509 -15.538931 -20.937964 -0.153862 -0.369149 -1.047977 -0.161183
